<?xml version="1.0" encoding="UTF-8" standalone="no"?>
<!-- Generator: Adobe Illustrator 19.0.0, SVG Export Plug-In . SVG Version: 6.00 Build 0)  -->

<svg
   version="1.1"
   id="Layer_1"
   x="0px"
   y="0px"
   viewBox="0 0 512 512"
   style="enable-background:new 0 0 512 512;"
   xml:space="preserve"
   sodipodi:docname="chessKing.svg"
   inkscape:version="1.1 (c68e22c387, 2021-05-23)"
   xmlns:inkscape="http://www.inkscape.org/namespaces/inkscape"
   xmlns:sodipodi="http://sodipodi.sourceforge.net/DTD/sodipodi-0.dtd"
   xmlns:xlink="http://www.w3.org/1999/xlink"
   xmlns="http://www.w3.org/2000/svg"
   xmlns:svg="http://www.w3.org/2000/svg"><defs
   id="defs75"><linearGradient
     inkscape:collect="always"
     id="linearGradient1033"><stop
       style="stop-color:#ff7f2a;stop-opacity:1"
       offset="0"
       id="stop1029" /><stop
       style="stop-color:#fa3029;stop-opacity:1"
       offset="1"
       id="stop1031" /></linearGradient><linearGradient
     inkscape:collect="always"
     xlink:href="#linearGradient1033"
     id="linearGradient1035"
     x1="44.313366"
     y1="354.43317"
     x2="496"
     y2="240"
     gradientUnits="userSpaceOnUse" /></defs><sodipodi:namedview
   id="namedview73"
   pagecolor="#ffffff"
   bordercolor="#111111"
   borderopacity="1"
   inkscape:pageshadow="0"
   inkscape:pageopacity="0"
   inkscape:pagecheckerboard="1"
   showgrid="false"
   inkscape:zoom="0.42382813"
   inkscape:cx="-510.82028"
   inkscape:cy="194.65438"
   inkscape:window-width="1920"
   inkscape:window-height="1027"
   inkscape:window-x="-8"
   inkscape:window-y="-8"
   inkscape:window-maximized="1"
   inkscape:current-layer="Layer_1" />
<circle
   style="fill:url(#linearGradient1035);fill-opacity:1"
   cx="256"
   cy="240"
   r="240"
   id="circle2" />
<path
   style="fill:#E6E6E6;"
   d="M280,200c-12,0-24,0-24,0s-12,0-24,0c0,36,0,180-48,264c36,0,72,0,72,0s36,0,72,0  C280,380,280,236,280,200z"
   id="path4" />
<path
   style="fill:#CCCCCC;"
   d="M280,200c-5.788,0-11.564,0-16,0c0,36,0,180,48,264c5.256,0,10.616,0,16,0C280,380,280,236,280,200z"
   id="path6" />
<path
   style="fill:#ffcc00"
   d="M292,208c0,4.4-3.6,8-8,8h-56c-4.4,0-8-3.6-8-8l0,0c0-4.4,3.6-8,8-8h56C288.4,200,292,203.6,292,208  L292,208z"
   id="path8" />
<g
   id="g14">
	<path
   style="fill:#263740;"
   d="M300,224c0,4.4-3.6,8-8,8h-72c-4.4,0-8-3.6-8-8l0,0c0-4.4,3.6-8,8-8h72C296.4,216,300,219.6,300,224   L300,224z"
   id="path10" />
	<path
   style="fill:#263740;"
   d="M340,472c0,4.4-3.6,8-8,8H180c-4.4,0-8-3.6-8-8l0,0c0-4.4,3.6-8,8-8h152   C336.4,464,340,467.6,340,472L340,472z"
   id="path12" />
</g>
<path
   style="fill:#1E2C33;"
   d="M332,464h-16c4.4,0,8,3.6,8,8s-3.6,8-8,8h16c4.4,0,8-3.6,8-8S336.4,464,332,464z"
   id="path16" />
<path
   style="fill:#ffcc00"
   d="M340,488c0,4.4-3.6,8-8,8H180c-4.4,0-8-3.6-8-8l0,0c0-4.4,3.6-8,8-8h152C336.4,480,340,483.6,340,488  L340,488z"
   id="path18" />
<path
   style="fill:#263740;"
   d="M356,504c0,4.4-3.6,8-8,8H164c-4.4,0-8-3.6-8-8l0,0c0-4.4,3.6-8,8-8h184C352.4,496,356,499.6,356,504  L356,504z"
   id="path20" />
<path
   style="fill:#1E2C33;"
   d="M348,496h-16c4.4,0,8,3.6,8,8s-3.6,8-8,8h16c4.4,0,8-3.6,8-8S352.4,496,348,496z"
   id="path22" />
<path
   style="fill:#806600"
   d="M332,480h-16c4.4,0,8,3.6,8,8s-3.6,8-8,8h16c4.4,0,8-3.6,8-8S336.4,480,332,480z"
   id="path24" />
<path
   style="fill:#1E2C33;"
   d="M292,216h-16c4.4,0,8,3.6,8,8s-3.6,8-8,8h16c4.4,0,8-3.6,8-8S296.4,216,292,216z"
   id="path26" />
<path
   style="fill:#aa8800"
   d="M284,200h-16c4.4,0,8,3.6,8,8s-3.6,8-8,8h16c4.4,0,8-3.6,8-8S288.4,200,284,200z"
   id="path28" />
<g
   id="g36">
	<rect
   x="252"
   y="48"
   style="fill:#263740;"
   width="8"
   height="76"
   id="rect30" />
	<rect
   x="220"
   y="84"
   style="fill:#263740;"
   width="72"
   height="8"
   id="rect32" />
	<rect
   x="240"
   y="60"
   style="fill:#263740;"
   width="32"
   height="8"
   id="rect34" />
</g>
<polygon
   style="fill:#E6E6E6;"
   points="296,112 216,112 232,200 280,200 "
   id="polygon38" />
<polygon
   style="fill:#CCCCCC;"
   points="280,112 264,200 280,200 296,112 "
   id="polygon40" />
<g
   id="g42">
</g>
<g
   id="g44">
</g>
<g
   id="g46">
</g>
<g
   id="g48">
</g>
<g
   id="g50">
</g>
<g
   id="g52">
</g>
<g
   id="g54">
</g>
<g
   id="g56">
</g>
<g
   id="g58">
</g>
<g
   id="g60">
</g>
<g
   id="g62">
</g>
<g
   id="g64">
</g>
<g
   id="g66">
</g>
<g
   id="g68">
</g>
<g
   id="g70">
</g>
</svg>
