<?xml version="1.0" encoding="UTF-8" standalone="no"?>
<!-- Generator: Adobe Illustrator 19.0.0, SVG Export Plug-In . SVG Version: 6.00 Build 0)  -->

<svg
   version="1.1"
   id="Layer_1"
   x="0px"
   y="0px"
   viewBox="0 0 480 480"
   xml:space="preserve"
   sodipodi:docname="chessLocalisation.svg"
   inkscape:version="1.1 (c68e22c387, 2021-05-23)"
   width="480"
   height="480"
   xmlns:inkscape="http://www.inkscape.org/namespaces/inkscape"
   xmlns:sodipodi="http://sodipodi.sourceforge.net/DTD/sodipodi-0.dtd"
   xmlns:xlink="http://www.w3.org/1999/xlink"
   xmlns="http://www.w3.org/2000/svg"
   xmlns:svg="http://www.w3.org/2000/svg"><defs
   id="defs75"><linearGradient
     inkscape:collect="always"
     id="linearGradient1033"><stop
       style="stop-color:#ff7f2a;stop-opacity:1"
       offset="0"
       id="stop1029" /><stop
       style="stop-color:#fa3029;stop-opacity:1"
       offset="1"
       id="stop1031" /></linearGradient><linearGradient
     inkscape:collect="always"
     xlink:href="#linearGradient1033"
     id="linearGradient1035-5"
     x1="44.313366"
     y1="354.43317"
     x2="496"
     y2="240"
     gradientUnits="userSpaceOnUse"
     gradientTransform="translate(-15.999988,1.2349336e-5)" /></defs><sodipodi:namedview
   id="namedview73"
   pagecolor="#ffffff"
   bordercolor="#111111"
   borderopacity="1"
   inkscape:pageshadow="0"
   inkscape:pageopacity="0"
   inkscape:pagecheckerboard="1"
   showgrid="false"
   inkscape:zoom="0.59938349"
   inkscape:cx="-87.59"
   inkscape:cy="429.6081"
   inkscape:window-width="1920"
   inkscape:window-height="1027"
   inkscape:window-x="-8"
   inkscape:window-y="-8"
   inkscape:window-maximized="1"
   inkscape:current-layer="Layer_1"
   fit-margin-top="0"
   fit-margin-left="0"
   fit-margin-right="0"
   fit-margin-bottom="0" />















<g
   id="g42"
   transform="translate(-16)">
</g>
<g
   id="g44"
   transform="translate(-16)">
</g>
<g
   id="g46"
   transform="translate(-16)">
</g>
<g
   id="g48"
   transform="translate(-16)">
</g>
<g
   id="g50"
   transform="translate(-16)">
</g>
<g
   id="g52"
   transform="translate(-16)">
</g>
<g
   id="g54"
   transform="translate(-16)">
</g>
<g
   id="g56"
   transform="translate(-16)">
</g>
<g
   id="g58"
   transform="translate(-16)">
</g>
<g
   id="g60"
   transform="translate(-16)">
</g>
<g
   id="g62"
   transform="translate(-16)">
</g>
<g
   id="g64"
   transform="translate(-16)">
</g>
<g
   id="g66"
   transform="translate(-16)">
</g>
<g
   id="g68"
   transform="translate(-16)">
</g>
<g
   id="g70"
   transform="translate(-16)">
</g>
<circle
   style="fill:url(#linearGradient1035-5);fill-opacity:1"
   cx="240"
   cy="240"
   r="240"
   id="circle2-7" /><g
   id="g69901"
   transform="translate(4.3044319,17.960248)"><g
     id="g69909"
     transform="translate(0,-34.484559)"><rect
       style="fill:#dddddd;fill-opacity:1;stroke:none;stroke-width:1.64183;stroke-linecap:round;stroke-linejoin:round;stroke-dasharray:1.64183, 4.92548;paint-order:stroke fill markers"
       id="rect23686-1"
       width="98.358177"
       height="98.358177"
       x="88.158295"
       y="256.52432" /><rect
       style="fill:#dddddd;fill-opacity:1;stroke:none;stroke-width:1.64183;stroke-linecap:round;stroke-linejoin:round;stroke-dasharray:1.64183, 4.92548;paint-order:stroke fill markers"
       id="rect23686-1-0"
       width="98.358177"
       height="98.358177"
       x="284.87466"
       y="-354.88248"
       transform="scale(1,-1)" /><rect
       style="fill:#dddddd;fill-opacity:1;stroke:none;stroke-width:1.64183;stroke-linecap:round;stroke-linejoin:round;stroke-dasharray:1.64183, 4.92548;paint-order:stroke fill markers"
       id="rect23686-1-5"
       width="98.358177"
       height="98.358177"
       x="186.51648"
       y="158.16614" /><rect
       style="fill:#263740;fill-opacity:1;stroke:none;stroke-width:1.64183;stroke-linecap:round;stroke-linejoin:round;stroke-dasharray:1.64183, 4.92548;paint-order:stroke fill markers"
       id="rect23686-2"
       width="98.358177"
       height="98.358177"
       x="88.158295"
       y="158.16612" /><rect
       style="fill:#263740;fill-opacity:1;stroke:none;stroke-width:1.64183;stroke-linecap:round;stroke-linejoin:round;stroke-dasharray:1.64183, 4.92548;paint-order:stroke fill markers"
       id="rect23686-2-6"
       width="98.358177"
       height="98.358177"
       x="186.51648"
       y="256.52429" /><rect
       style="fill:#263740;fill-opacity:1;stroke:none;stroke-width:1.64183;stroke-linecap:round;stroke-linejoin:round;stroke-dasharray:1.64183, 4.92548;paint-order:stroke fill markers"
       id="rect23686-4"
       width="98.358177"
       height="98.358177"
       x="284.87466"
       y="158.16614" /></g><g
     id="g69774"
     transform="translate(-2.0776492e-8,-22.523143)"><path
       style="fill:#ffffff;fill-opacity:1;stroke-width:0.427909"
       d="m 132.92585,180.98811 c -14.77541,-19.07453 -26.04846,-37.57492 -29.84298,-48.97579 -1.29685,-3.89646 -1.39353,-4.58408 -1.37162,-9.75478 0.0182,-4.30821 0.23247,-6.33487 0.94979,-8.98609 3.43002,-12.67705 13.68241,-22.915798 26.42106,-26.385878 4.9775,-1.355915 14.44602,-1.369214 19.11329,-0.0268 11.36357,3.2683 19.65056,10.297843 24.4825,20.767578 2.42282,5.24971 2.96952,7.9369 2.97663,14.63125 0.005,5.63871 -0.0737,6.22115 -1.3582,9.91193 -2.92368,8.40144 -7.3568,16.64145 -15.73204,29.24178 -7.40609,11.14229 -18.93295,26.53038 -19.87328,26.53038 -0.20836,0 -2.80268,-3.1291 -5.76515,-6.95351 z m 11.06598,-37.77708 c 3.66748,-0.95526 6.52013,-2.63211 9.43286,-5.54484 4.16906,-4.16906 6.20612,-9.01853 6.19571,-14.7497 -0.0186,-10.20051 -7.56186,-18.91797 -17.86014,-20.64006 -13.42748,-2.24537 -25.97068,10.29783 -23.72531,23.72533 2.06463,12.34676 14.06909,20.30564 25.95688,17.20927 z"
       id="path38235"
       sodipodi:nodetypes="ssssscsssssssssssss" /><path
       d="m 129.11715,199.18958 c -15.62087,-1.64757 -25.87247,-6.65693 -24.77957,-12.10839 0.35502,-1.77086 3.02039,-4.24274 6.22296,-5.77117 2.64303,-1.2614 9.991,-3.47086 11.55055,-3.47311 0.41038,-4.3e-4 1.33667,0.81412 2.05842,1.81046 1.55767,2.15031 1.84928,1.95503 -4.81284,3.2232 -7.04293,1.34064 -11.18792,3.67226 -10.3607,5.828 0.70328,1.8327 6.74811,4.06984 14.0806,5.21114 5.90311,0.9188 19.72896,1.26344 26.30849,0.65579 10.74838,-0.99267 18.63231,-3.32185 19.78153,-5.84411 0.47569,-1.04402 0.40636,-1.24406 -0.80688,-2.32808 -1.70542,-1.52381 -5.15937,-2.80598 -9.87412,-3.66549 -2.05905,-0.37536 -4.18488,-0.76875 -4.72409,-0.87421 l -0.98036,-0.19171 1.37383,-1.91303 c 0.75561,-1.05216 1.67817,-1.91254 2.05014,-1.91196 0.37196,4.3e-4 2.50561,0.48439 4.74144,1.07509 7.25344,1.9163 12.32158,5.06439 13.09143,8.13174 1.12886,4.49765 -5.61224,8.74233 -17.58448,11.07242 -7.5638,1.4721 -19.21763,1.92971 -27.33635,1.07342 z"
       style="fill:#ffcc00;fill-opacity:1;stroke:none;stroke-width:0.427909;stroke-opacity:1"
       id="path38588" /><path
       style="opacity:1;fill:#ffcc00;fill-opacity:1;stroke:none;stroke-width:1.517;stroke-linecap:round;stroke-linejoin:round;stroke-dasharray:1.517, 4.55099;stroke-opacity:1;paint-order:stroke fill markers"
       d="m 133.28589,143.29268 c -6.36962,-1.68354 -11.90642,-6.80425 -14.34161,-13.26386 -1.02376,-2.71565 -1.2087,-4.19733 -1.02213,-8.18932 0.19585,-4.19102 0.49895,-5.38156 2.16343,-8.49817 4.89335,-9.16242 14.91138,-13.463895 24.45659,-10.501 6.82344,2.11803 11.49475,6.51358 14.00921,13.18225 0.99662,2.64312 1.17639,4.13043 0.98029,8.11048 -0.28902,5.86668 -1.94515,9.58392 -6.13775,13.77654 -5.57334,5.57333 -12.43664,7.41068 -20.10803,5.38308 z"
       id="path54717" /></g><g
     id="g69769"
     transform="translate(-5.0051429,-3.3367619)"><path
       style="fill:#ffffff;fill-opacity:1;stroke-width:0.427909"
       d="m 236.15934,293.51071 c -14.77541,-19.07453 -26.04846,-37.57492 -29.84298,-48.97579 -1.29685,-3.89646 -1.39353,-4.58408 -1.37162,-9.75478 0.0182,-4.30821 0.23247,-6.33487 0.94979,-8.98609 3.43002,-12.67705 13.68241,-22.9158 26.42106,-26.38588 4.9775,-1.35591 14.44602,-1.36921 19.11329,-0.0268 11.36357,3.2683 19.65056,10.29785 24.4825,20.76759 2.42282,5.2497 2.96952,7.93689 2.97663,14.63124 0.005,5.63871 -0.0737,6.22115 -1.3582,9.91194 -2.92368,8.40144 -7.3568,16.64145 -15.73204,29.24178 -7.40609,11.14229 -18.93295,26.53038 -19.87328,26.53038 -0.20836,0 -2.80268,-3.1291 -5.76515,-6.95351 z m 11.06598,-37.77708 c 3.66748,-0.95526 6.52013,-2.63211 9.43286,-5.54483 4.16906,-4.16907 6.20612,-9.01853 6.19571,-14.7497 -0.0186,-10.20051 -7.56186,-18.91797 -17.86014,-20.64006 -13.42748,-2.24537 -25.97068,10.29783 -23.72531,23.72532 2.06463,12.34676 14.06909,20.30565 25.95688,17.20927 z"
       id="path38235-4"
       sodipodi:nodetypes="ssssscsssssssssssss" /><path
       d="m 232.35064,311.71218 c -15.62087,-1.64757 -25.87247,-6.65693 -24.77957,-12.10839 0.35502,-1.77086 3.02039,-4.24274 6.22296,-5.77117 2.64303,-1.2614 9.991,-3.47086 11.55055,-3.47311 0.41038,-4.3e-4 1.33667,0.81412 2.05842,1.81046 1.55767,2.15031 1.84928,1.95503 -4.81284,3.2232 -7.04293,1.34064 -11.18792,3.67226 -10.3607,5.828 0.70328,1.8327 6.74811,4.06984 14.0806,5.21114 5.90311,0.9188 19.72896,1.26344 26.30849,0.65579 10.74838,-0.99267 18.63231,-3.32185 19.78153,-5.84411 0.47569,-1.04402 0.40636,-1.24406 -0.80688,-2.32808 -1.70542,-1.52381 -5.15937,-2.80598 -9.87412,-3.66549 -2.05905,-0.37536 -4.18488,-0.76875 -4.72409,-0.87421 l -0.98036,-0.19171 1.37383,-1.91303 c 0.75561,-1.05216 1.67817,-1.91254 2.05014,-1.91196 0.37196,4.3e-4 2.50561,0.48439 4.74144,1.07509 7.25344,1.9163 12.32158,5.06439 13.09143,8.13174 1.12886,4.49765 -5.61224,8.74233 -17.58448,11.07242 -7.5638,1.4721 -19.21763,1.92971 -27.33635,1.07342 z"
       style="fill:#ffcc00;fill-opacity:1;stroke:none;stroke-width:0.427909;stroke-opacity:1"
       id="path38588-3" /><path
       style="fill:#ffcc00;fill-opacity:1;stroke:none;stroke-width:1.517;stroke-linecap:round;stroke-linejoin:round;stroke-dasharray:1.517, 4.55099;stroke-opacity:1;paint-order:stroke fill markers"
       d="m 236.51938,255.81528 c -6.36962,-1.68354 -11.90642,-6.80425 -14.34161,-13.26386 -1.02376,-2.71565 -1.2087,-4.19732 -1.02213,-8.18932 0.19585,-4.19101 0.49895,-5.38156 2.16343,-8.49817 4.89335,-9.16241 14.91138,-13.46389 24.45659,-10.501 6.82344,2.11803 11.49475,6.51358 14.00921,13.18225 0.99662,2.64312 1.17639,4.13043 0.98029,8.11048 -0.28902,5.86668 -1.94515,9.58392 -6.13775,13.77654 -5.57334,5.57333 -12.43664,7.41068 -20.10803,5.38308 z"
       id="path54717-4" /></g><g
     id="g69779"
     transform="translate(-5.8447017e-8,-8.3419048)"><path
       style="fill:#ffffff;fill-opacity:1;stroke-width:0.427909"
       d="m 329.58868,197.57881 c -14.77541,-19.07453 -26.04846,-37.57492 -29.84298,-48.97579 -1.29685,-3.89646 -1.39353,-4.58408 -1.37162,-9.75478 0.0182,-4.30821 0.23247,-6.33487 0.94979,-8.98609 3.43002,-12.67705 13.68241,-22.9158 26.42106,-26.38588 4.9775,-1.35591 14.44602,-1.36921 19.11329,-0.0268 11.36357,3.2683 19.65056,10.29785 24.4825,20.76759 2.42282,5.2497 2.96952,7.93689 2.97663,14.63124 0.005,5.63871 -0.0737,6.22115 -1.3582,9.91194 -2.92368,8.40144 -7.3568,16.64145 -15.73204,29.24178 -7.40609,11.14229 -18.93295,26.53038 -19.87328,26.53038 -0.20836,0 -2.80268,-3.1291 -5.76515,-6.95351 z m 11.06598,-37.77708 c 3.66748,-0.95526 6.52013,-2.63211 9.43286,-5.54483 4.16906,-4.16907 6.20612,-9.01853 6.19571,-14.7497 -0.0186,-10.20051 -7.56186,-18.91797 -17.86014,-20.64006 -13.42748,-2.24537 -25.97068,10.29783 -23.72531,23.72532 2.06463,12.34676 14.06909,20.30565 25.95688,17.20927 z"
       id="path38235-4-8"
       sodipodi:nodetypes="ssssscsssssssssssss" /><path
       d="m 325.77998,215.78028 c -15.62087,-1.64757 -25.87247,-6.65693 -24.77957,-12.10839 0.35502,-1.77086 3.02039,-4.24274 6.22296,-5.77117 2.64303,-1.2614 9.991,-3.47086 11.55055,-3.47311 0.41038,-4.3e-4 1.33667,0.81412 2.05842,1.81046 1.55767,2.15031 1.84928,1.95503 -4.81284,3.2232 -7.04293,1.34064 -11.18792,3.67226 -10.3607,5.828 0.70328,1.8327 6.74811,4.06984 14.0806,5.21114 5.90311,0.9188 19.72896,1.26344 26.30849,0.65579 10.74838,-0.99267 18.63231,-3.32185 19.78153,-5.84411 0.47569,-1.04402 0.40636,-1.24406 -0.80688,-2.32808 -1.70542,-1.52381 -5.15937,-2.80598 -9.87412,-3.66549 -2.05905,-0.37536 -4.18488,-0.76875 -4.72409,-0.87421 l -0.98036,-0.19171 1.37383,-1.91303 c 0.75561,-1.05216 1.67817,-1.91254 2.05014,-1.91196 0.37196,4.3e-4 2.50561,0.48439 4.74144,1.07509 7.25344,1.9163 12.32158,5.06439 13.09143,8.13174 1.12886,4.49765 -5.61224,8.74233 -17.58448,11.07242 -7.5638,1.4721 -19.21763,1.92971 -27.33635,1.07342 z"
       style="fill:#ffcc00;fill-opacity:1;stroke:none;stroke-width:0.427909;stroke-opacity:1"
       id="path38588-3-1" /><path
       style="fill:#ffcc00;fill-opacity:1;stroke:none;stroke-width:1.517;stroke-linecap:round;stroke-linejoin:round;stroke-dasharray:1.517, 4.55099;stroke-opacity:1;paint-order:stroke fill markers"
       d="m 329.94872,159.88338 c -6.36962,-1.68354 -11.90642,-6.80425 -14.34161,-13.26386 -1.02376,-2.71565 -1.2087,-4.19732 -1.02213,-8.18932 0.19585,-4.19101 0.49895,-5.38156 2.16343,-8.49817 4.89335,-9.16241 14.91138,-13.46389 24.45659,-10.501 6.82344,2.11803 11.49475,6.51358 14.00921,13.18225 0.99662,2.64312 1.17639,4.13043 0.98029,8.11048 -0.28902,5.86668 -1.94515,9.58392 -6.13775,13.77654 -5.57334,5.57333 -12.43664,7.41068 -20.10803,5.38308 z"
       id="path54717-4-4" /></g></g></svg>
